PathFileType	4	(X/Y/Z)	/Users/itak/Documents/Research/Walk-IL/dataset/trc/00365_00011.trc
DataRate	CameraRate	NumFrames	NumMarkers	Units	OrigDataRate	OrigDataStartFrame	OrigNumFrames
100.000000	100.000000	4	56	mm	100.000000	219	351
Frame#	Time	RPSI			LPSI			L3			STRN			T10			C7			CLAV			RBAK			LBAK			LSHO			LUPA			LAEL			LAOL			LWTS			LWPS			LFRA			LIFD			LHPS			LHTS			RSHO			RUPA			RAEL			RAOL			RWTS			RWPS			RFRA			RIFD			RHTS			RHPS			RBHD			LFHD			RFHD			LBHD			LHIP			RHIP			RASI			LASI			LKNE			LTHI			LANK			LTIP			LTOE			LMT1			LMT5			LHEE			RKNE			RTHI			RTIP			RTOE			RMT1			RMT5			RANK			RHEE			*53			*54			*55			
		X1	Y1	Z1	X2	Y2	Z2	X3	Y3	Z3	X4	Y4	Z4	X5	Y5	Z5	X6	Y6	Z6	X7	Y7	Z7	X8	Y8	Z8	X9	Y9	Z9	X10	Y10	Z10	X11	Y11	Z11	X12	Y12	Z12	X13	Y13	Z13	X14	Y14	Z14	X15	Y15	Z15	X16	Y16	Z16	X17	Y17	Z17	X18	Y18	Z18	X19	Y19	Z19	X20	Y20	Z20	X21	Y21	Z21	X22	Y22	Z22	X23	Y23	Z23	X24	Y24	Z24	X25	Y25	Z25	X26	Y26	Z26	X27	Y27	Z27	X28	Y28	Z28	X29	Y29	Z29	X30	Y30	Z30	X31	Y31	Z31	X32	Y32	Z32	X33	Y33	Z33	X34	Y34	Z34	X35	Y35	Z35	X36	Y36	Z36	X37	Y37	Z37	X38	Y38	Z38	X39	Y39	Z39	X40	Y40	Z40	X41	Y41	Z41	X42	Y42	Z42	X43	Y43	Z43	X44	Y44	Z44	X45	Y45	Z45	X46	Y46	Z46	X47	Y47	Z47	X48	Y48	Z48	X49	Y49	Z49	X50	Y50	Z50	X51	Y51	Z51	X52	Y52	Z52	X53	Y53	Z53	X54	Y54	Z54	X55	Y55	Z55	X56	Y56	Z56	

220	2.19	590.2015380859375	967.3265991210938	-370.7303161621094	463.1812744140625	965.0131225585938	-344.981689453125	532.6016235351562	1023.172973632812	-358.1357421875	468.4221801757812	1225.982421875	-568.5748291015625	526.2451782226562	1142.517822265625	-340.5609741210938	493.2138366699219	1391.902709960938	-358.7905883789062	467.9304504394531	1348.651977539062	-516.5892944335938	575.5800170898438	1253.162963867188	-339.9279479980469	399.8192138671875	1349.46630859375	-329.7769470214844	325.1618347167969	1369.448364257812	-398.4064331054688	270.9163513183594	1251.153076171875	-356.9551696777344	263.680419921875	1048.8388671875	-340.833740234375	341.498779296875	1042.723999023438	-307.4076232910156	271.2709655761719	789.130126953125	-399.6083679199219	238.2441558837891	790.785888671875	-339.0668334960938	254.2492980957031	944.3267211914062	-333.9092102050781	277.7478332519531	630.4519653320312	-365.4203186035156	247.3308410644531	723.6250610351562	-322.489990234375	256.5213317871094	712.2222290039062	-384.454345703125	640.2610473632812	1396.072509765625	-446.3612670898438	708.293212890625	1336.981811523438	-454.9903869628906	779.081787109375	1085.435791015625	-528.0596313476562	704.9883422851562	1062.274658203125	-477.3166198730469	733.9412841796875	933.78955078125	-724.8964233398438	798.7538452148438	900.2348022460938	-700.462158203125	792.4854125976562	1031.263427734375	-575.3333129882812	748.0446166992188	796.2152709960938	-828.855712890625	750.7672119140625	864.1294555664062	-801.8109130859375	796.7987670898438	838.30810546875	-757.0248413085938	561.5355834960938	1594.636962890625	-389.2764282226562	410.8493347167969	1636.870971679688	-526.87744140625	511.7973937988281	1639.966674804688	-537.46728515625	423.8918762207031	1581.027587890625	-349.0535278320312	343.4600524902344	915.3499755859375	-416.0985412597656	681.4635009765625	917.5884399414062	-472.1951599121094	622.5208129882812	952.5972290039062	-566.9364624023438	383.7488708496094	949.23779296875	-542.0203247070312	323.0124816894531	488.6722717285156	-611.0681762695312	321.4815368652344	614.476806640625	-566.0274047851562	360.6057434082031	127.5026702880859	-360.5880126953125	330.9150695800781	296.3385009765625	-485.7906494140625	379.8950805664062	75.00519561767578	-563.8890991210938	432.3981323242188	71.687744140625	-501.5070190429688	324.8529663085938	92.63850402832031	-473.6670227050781	432.846435546875	132.2690887451172	-339.395263671875	647.2767333984375	459.4026794433594	-561.2837524414062	673.2813110351562	724.0391235351562	-580.0383911132812	634.9351806640625	342.1182250976562	-580.0875244140625	555.3087768554688	40.06929016113281	-720.4716796875	518.5886840820312	38.73988723754883	-662.3412475585938	632.9696044921875	27.94245338439941	-631.2008056640625	623.191162109375	40.13144302368164	-530.6314086914062	577.4199829101562	44.78838348388672	-479.1172790527344	nan	nan	nan	nan	nan	nan	nan	nan	nan	
221	2.2	590.47265625	967.9946899414062	-374.3193054199219	463.4628295898438	965.7833251953125	-348.7122497558594	533.1026000976562	1023.622741699219	-361.7125854492188	468.8993835449219	1226.3828125	-572.1045532226562	527.035888671875	1142.910400390625	-344.1204223632812	494.0693054199219	1392.321655273438	-362.3930358886719	468.5459594726562	1349.053833007812	-520.142578125	576.4055786132812	1253.57373046875	-343.6028442382812	400.7190551757812	1349.914306640625	-333.2581481933594	326.0136108398438	1369.939697265625	-401.6777954101562	271.9259338378906	1251.971557617188	-359.4459228515625	265.2485046386719	1049.826416015625	-341.7737731933594	343.2823486328125	1043.99365234375	-309.0720520019531	272.1440124511719	789.8236083984375	-399.0201110839844	239.8484191894531	791.75146484375	-338.0582885742188	255.8854522705078	945.33154296875	-334.0186462402344	278.9076843261719	631.2990112304688	-364.2988891601562	249.1368713378906	724.6497192382812	-321.3419189453125	257.5504150390625	713.018798828125	-383.3683471679688	640.9935302734375	1396.369140625	-450.1138916015625	708.985595703125	1337.247192382812	-458.8114013671875	780.099365234375	1085.957641601562	-532.812744140625	706.4675903320312	1063.006591796875	-481.3814086914062	734.05615234375	937.566650390625	-731.5750732421875	798.6625366210938	903.166015625	-707.7574462890625	793.4075927734375	1032.178344726562	-580.5615844726562	746.8816528320312	801.7883911132812	-838.0228271484375	750.4005737304688	869.2865600585938	-809.7498168945312	796.0176391601562	842.0834350585938	-765.3682861328125	562.510498046875	1595.0458984375	-392.9152221679688	411.5217590332031	1637.336059570312	-530.1695556640625	512.461181640625	1640.383666992188	-540.982421875	424.9033508300781	1581.477905273438	-352.40869140625	343.7974853515625	916.050048828125	-419.7394104003906	681.8025512695312	917.940673828125	-475.5339660644531	622.9197998046875	952.7950439453125	-570.43994140625	384.0908203125	949.771484375	-545.70458984375	323.4743041992188	488.4746704101562	-613.1871337890625	321.9153137207031	614.633544921875	-568.3085327148438	356.9838256835938	119.5666046142578	-373.6529541015625	329.3446044921875	292.9398803710938	-492.9976196289062	376.3624572753906	76.51396942138672	-579.1728515625	428.4689636230469	69.51025390625	-516.7564086914062	321.3567199707031	90.56777191162109	-488.3316955566406	429.1023559570312	122.3937530517578	-351.92822265625	647.763671875	459.2845458984375	-561.8814086914062	673.5482788085938	724.0861206054688	-583.1482543945312	635.3253784179688	341.9921264648438	-580.3094482421875	555.32421875	40.09756851196289	-720.4231567382812	518.5936889648438	38.74746322631836	-662.2935791015625	632.9607543945312	27.91531372070312	-631.191650390625	623.1678466796875	40.0722770690918	-530.5895385742188	577.4528198242188	44.86106109619141	-479.1109924316406	nan	nan	nan	nan	nan	nan	nan	nan	nan	
222	2.21	590.6376342773438	968.6376953125	-377.8604736328125	463.6363525390625	966.5365600585938	-352.4283752441406	533.4800415039062	1024.027099609375	-365.2696228027344	469.3399047851562	1226.7470703125	-575.5555419921875	527.6853637695312	1143.247680664062	-347.61376953125	494.7823486328125	1392.69287109375	-365.8911437988281	469.1023864746094	1349.410522460938	-523.6016845703125	577.079833984375	1253.922241210938	-347.1095886230469	401.4546813964844	1350.302490234375	-336.6903991699219	326.720947265625	1370.401000976562	-404.9398803710938	272.7879028320312	1252.685791015625	-362.11572265625	266.7141723632812	1050.710693359375	-343.1278991699219	344.929443359375	1045.11083984375	-311.0500793457031	273.0545043945312	790.3850708007812	-398.8124084472656	241.3695220947266	792.644775390625	-337.5121459960938	257.4135437011719	946.2493286132812	-334.5970153808594	280.0679931640625	632.0453491210938	-363.3785400390625	250.8356475830078	725.6173706054688	-320.5646057128906	258.6326904296875	713.6859130859375	-382.607177734375	641.6395874023438	1396.6025390625	-453.6892395019531	709.5892944335938	1337.4384765625	-462.4246215820312	780.9044189453125	1086.326171875	-537.1842651367188	707.6136474609375	1063.560546875	-485.2334289550781	733.9479370117188	940.9328002929688	-737.644775390625	798.3602294921875	905.7609252929688	-714.4358520507812	794.096435546875	1032.907592773438	-585.3583374023438	745.49267578125	806.8076782226562	-846.3250122070312	749.798583984375	873.9320068359375	-816.955810546875	795.0526123046875	845.4736938476562	-772.9892578125	563.4032592773438	1595.393310546875	-396.4208984375	412.1442565917969	1637.746337890625	-533.361328125	513.0786743164062	1640.744018554688	-544.3717651367188	425.8153991699219	1581.8740234375	-355.6618041992188	344.0528564453125	916.684326171875	-423.408203125	682.065185546875	918.2736206054688	-478.802490234375	623.2655029296875	952.9503784179688	-573.8475341796875	384.3671569824219	950.2581787109375	-549.4058227539062	324.03271484375	487.9517211914062	-614.7093505859375	322.3852844238281	614.5695190429688	-570.1436767578125	353.0727233886719	111.6986389160156	-386.6396179199219	327.6595764160156	289.4140930175781	-499.9007873535156	373.0115356445312	77.98303985595703	-593.8927001953125	424.5626831054688	67.3992919921875	-531.5137939453125	317.79638671875	88.51280975341797	-502.7024841308594	425.0527954101562	112.561637878418	-364.4181213378906	648.139892578125	459.1614379882812	-562.5175170898438	673.7393798828125	724.1141357421875	-586.1884155273438	635.651611328125	341.8724060058594	-580.5563354492188	555.3384399414062	40.12423324584961	-720.377685546875	518.5938110351562	38.74763870239258	-662.2449340820312	632.950927734375	27.8907356262207	-631.1827392578125	623.1558837890625	40.04207992553711	-530.5586547851562	577.4735107421875	44.92463684082031	-479.1022033691406	nan	nan	nan	nan	nan	nan	nan	nan	nan	
223	2.22	590.6878662109375	969.2435302734375	-381.3389892578125	463.6924133300781	967.2647705078125	-356.1214294433594	533.727783203125	1024.377197265625	-368.8038024902344	469.7496032714844	1227.074462890625	-578.9312744140625	528.19140625	1143.530517578125	-351.0388488769531	495.350830078125	1393.012939453125	-369.2818603515625	469.6022033691406	1349.721313476562	-526.9681396484375	577.5980224609375	1254.201293945312	-350.4559020996094	402.0246276855469	1350.632446289062	-340.0746765136719	327.2900085449219	1370.83154296875	-408.1922607421875	273.5015258789062	1253.290771484375	-364.9637451171875	268.0599670410156	1051.484130859375	-344.8887939453125	346.4283752441406	1046.08349609375	-313.3285522460938	273.9873657226562	790.8106689453125	-398.9951171875	242.8007507324219	793.451171875	-337.4312744140625	258.8175964355469	947.0692749023438	-335.638916015625	281.2429504394531	632.68408203125	-362.6835021972656	252.4213256835938	726.5145263671875	-320.1692199707031	259.7587585449219	714.2167358398438	-382.1876220703125	642.1998901367188	1396.775634765625	-457.0838623046875	710.1048583984375	1337.560302734375	-465.8317565917969	781.4969482421875	1086.552368164062	-541.1936645507812	708.4266357421875	1063.945678710938	-488.8855590820312	733.621826171875	943.8677978515625	-743.1257934570312	797.8524780273438	908.0016479492188	-720.5031127929688	794.5501098632812	1033.457763671875	-589.74462890625	743.9070434570312	811.2339477539062	-853.7715454101562	748.9697265625	878.0216064453125	-823.4403076171875	793.9183349609375	848.4505004882812	-779.8878784179688	564.2091064453125	1595.677490234375	-399.7925109863281	412.7203369140625	1638.096801757812	-536.46240234375	513.6517944335938	1641.043823242188	-547.6409912109375	426.6280517578125	1582.21533203125	-358.8162231445312	344.220947265625	917.245361328125	-427.112060546875	682.2486572265625	918.584716796875	-481.9923095703125	623.5616455078125	953.0603637695312	-577.149169921875	384.5833740234375	950.6929931640625	-553.1280517578125	324.6878356933594	487.1103210449219	-615.6639404296875	322.8825073242188	614.2943115234375	-571.5524291992188	348.9556274414062	103.9798812866211	-399.5028076171875	325.8990783691406	285.7951965332031	-506.5115356445312	369.8799438476562	79.38257598876953	-608.0358276367188	420.7460021972656	65.35305786132812	-545.7611694335938	314.2398376464844	86.48389434814453	-516.7442626953125	420.783447265625	102.8796920776367	-376.829833984375	648.4058837890625	459.0350646972656	-563.173828125	673.8517456054688	724.1204833984375	-589.1502075195312	635.9197998046875	341.76123046875	-580.8155517578125	555.3508911132812	40.14854049682617	-720.335693359375	518.5885009765625	38.73919677734375	-662.1973266601562	632.9403686523438	27.86941909790039	-631.1741943359375	623.1568603515625	40.04476165771484	-530.5396118164062	577.4808959960938	44.97649383544922	-479.0914306640625	nan	nan	nan	nan	nan	nan	nan	nan	nan	
